<svg width="360" height="747" viewBox="0 0 360 747" fill="none" xmlns="http://www.w3.org/2000/svg">
<path d="M275.005 455.952C306.382 468.246 339.963 478.9 373.291 473.898C406.618 468.897 439.151 443.748 441.94 410.16C443.558 390.643 435.181 371.544 424.096 355.397C413.011 339.249 399.161 325.175 387.724 309.278C368.504 282.563 355.964 250.585 331.649 228.409C307.515 206.399 273.953 196.645 241.291 196.765C208.627 196.889 176.624 206.136 146.274 218.207C107.888 233.478 70.6434 253.944 42.8193 284.484C14.9988 315.025 -2.43428 356.854 3.29641 397.764C6.75938 422.481 22.7093 457.447 47.6064 467.645C66.6966 475.466 81.3322 461.976 96.4169 451.83C156.671 411.319 212.461 431.435 275.005 455.943L275.005 455.952Z" stroke="#00857A" stroke-miterlimit="10"/>
<path d="M330.619 468.715C364.116 472.406 399.313 473.94 430.185 460.425C461.056 446.91 485.911 414.151 479.849 380.997C476.324 361.732 463.259 345.477 448.348 332.777C433.438 320.077 416.398 310.099 401.213 297.732C375.695 276.95 355.254 249.346 326 234.273C296.963 219.314 262.019 218.645 230.517 227.274C199.015 235.906 170.527 253.175 144.373 272.739C111.293 297.487 80.6702 326.953 61.7675 363.689C42.8686 400.426 36.9401 445.352 53.1354 483.355C62.9208 506.315 87.4327 535.915 114.127 539.272C134.596 541.847 145.21 525.009 157.129 511.282C204.742 456.467 263.847 461.347 330.617 468.707L330.619 468.715Z" stroke="#00857A" stroke-miterlimit="10"/>
</svg>
