<svg width="768" height="1109" viewBox="0 0 768 1109" fill="none" xmlns="http://www.w3.org/2000/svg">
<path d="M617.701 639.013C664.291 634.556 712.583 626.684 750.736 599.574C788.889 572.464 813.416 520.891 795.795 477.526C785.553 452.328 763.189 433.922 739.323 420.872C715.456 407.822 689.464 399.074 665.319 386.555C624.742 365.517 589.139 333.766 545.097 321.547C501.384 309.422 453.682 318.397 413.289 339.041C372.897 359.691 339.048 391.231 309.02 425.231C271.042 468.239 237.74 516.967 222.43 572.265C207.125 627.562 211.774 690.326 244.546 737.418C264.346 765.869 306.049 799.182 343.295 796.194C371.855 793.905 381.524 768.008 393.847 745.971C443.08 657.969 524.826 647.884 617.695 639.002L617.701 639.013Z" stroke="#00857A" stroke-miterlimit="10"/>
<path d="M694.614 619.928C738.432 603.482 783.004 583.296 812.772 547.179C842.541 511.062 852.778 454.879 824.464 417.605C808.008 395.948 781.62 384.007 755.177 377.628C728.734 371.249 701.361 369.579 674.787 363.785C630.13 354.05 587.481 332.676 541.777 332.357C496.415 332.045 452.7 353.143 419.084 383.601C385.47 414.065 361.011 453.337 340.883 493.988C315.427 545.408 295.976 601.131 295.608 658.508C295.245 715.883 316.091 775.267 360.004 812.189C386.535 834.496 435.479 855.789 470.659 843.196C497.636 833.542 500.22 806.021 506.374 781.534C530.969 683.741 607.261 652.699 694.606 619.919L694.614 619.928Z" stroke="#00857A" stroke-miterlimit="10"/>
</svg>
