<svg width="251" height="524" viewBox="0 0 251 524" fill="none" xmlns="http://www.w3.org/2000/svg">
<path d="M330.207 250.785C343.294 228.566 355.41 204.483 355.665 178.696C355.921 152.91 340.858 125.284 315.818 119.111C301.267 115.525 285.822 119.542 272.28 125.963C258.738 132.384 246.427 141.144 233.031 147.861C210.519 159.149 184.84 164.752 165.14 180.439C145.588 196.009 134.156 220.187 130.292 244.88C126.431 269.574 129.544 294.875 134.99 319.267C141.881 350.12 152.835 380.738 172.541 405.458C192.249 430.176 221.743 448.412 253.348 449.035C272.442 449.41 300.792 441.592 311.511 424.016C319.732 410.538 311.311 397.847 305.471 385.221C282.157 334.791 304.111 295.073 330.2 250.784L330.207 250.785Z" stroke="#00857A" stroke-miterlimit="10"/>
<path d="M346.583 210.31C353.427 185.448 358.847 159.039 352.373 134.078C345.899 109.116 324.156 86.371 298.373 86.9371C283.39 87.2679 269.526 95.1718 258.126 104.9C246.725 114.628 237.122 126.295 225.94 136.271C207.149 153.036 183.817 165.139 168.887 185.418C154.069 205.546 149.333 231.867 152.039 256.713C154.747 281.561 164.347 305.176 175.962 327.306C190.656 355.296 209.212 382.001 234.68 400.73C260.149 419.457 293.376 429.376 324.051 421.74C342.584 417.126 367.916 402.189 373.684 382.426C378.107 367.272 366.67 357.214 357.741 346.547C322.089 303.936 332.932 259.869 346.576 210.311L346.583 210.31Z" stroke="#00857A" stroke-miterlimit="10"/>
</svg>
